<?xml version="1.0" encoding="UTF-8" standalone="no"?>
<!-- Created with Inkscape (http://www.inkscape.org/) -->

<svg
   xmlns:dc="http://purl.org/dc/elements/1.1/"
   xmlns:cc="http://creativecommons.org/ns#"
   xmlns:rdf="http://www.w3.org/1999/02/22-rdf-syntax-ns#"
   xmlns:svg="http://www.w3.org/2000/svg"
   xmlns="http://www.w3.org/2000/svg"
   version="1.1"
   width="200.03125"
   height="199.98045"
   viewBox="0 0 200.03125 199.98046"
   id="圖層_1"
   xml:space="preserve"><metadata
   id="metadata31"><rdf:RDF><cc:Work
       rdf:about=""><dc:format>image/svg+xml</dc:format><dc:type
         rdf:resource="http://purl.org/dc/dcmitype/StillImage" /><dc:title></dc:title></cc:Work></rdf:RDF></metadata><defs
   id="defs29" />











<g
   transform="translate(1.6260588e-6,0.03125)"
   id="g3008"><rect
     width="199.7485"
     height="199.94576"
     rx="0.49926636"
     x="0.0073000235"
     y="0.0034490041"
     id="rect2994"
     style="fill:#ffffff;fill-opacity:1" /><path
     d="M 0.05316676,173.2026 0.21444818,0.03245939 199.97006,0.24708911 C 199.91689,36.300465 199.86371,72.409838 199.86371,108.46427 c 0,-28.360089 -29.16897,-45.793674 -53.86746,-49.615143 C 123.71557,55.349514 97.401432,59.655711 73.239073,73.757148 41.489597,92.214067 16.95062,129.77497 6.1354019,157.65263 3.175455,165.3445 0.05316676,170.45728 0.05316676,173.2026"
     id="path3"
     style="fill:#f9be00" /><path
     d="M 0.05316676,173.2026 0.21444818,0.03245939 199.97006,0.24708911 C 199.91689,36.300465 199.86371,72.409838 199.86371,108.46427 c 0,-28.360089 -29.16897,-45.793674 -53.86746,-49.615143 C 123.71557,55.349514 97.401432,59.655711 73.239073,73.757148 41.489597,92.214067 16.95062,129.77497 6.1354019,157.65263 3.175455,165.3445 0.05316676,170.45728 0.05316676,173.2026 z"
     id="path5"
     style="fill:none;stroke:#f9be00;stroke-width:0.05988434" /><path
     d="M 37.560548,37.377676 C 53.059993,30.811597 69.84863,35.010037 74.962646,46.68766 80.07419,58.363516 71.626612,73.218012 56.074878,79.782502 40.573843,86.347521 23.78503,82.150141 18.674017,70.472518 13.56,58.795249 22.009875,43.942342 37.560548,37.377676"
     id="path7"
     style="fill:#ffffff" /><path
     d="m 12.055649,20.425109 c 6.994279,-2.904656 14.581925,-1.020861 16.897276,4.198439 2.311465,5.272825 -1.562999,12.000363 -8.502693,14.959603 C 13.453304,42.543451 5.8640675,40.659656 3.552426,35.385948 1.2356617,30.1133 5.0594269,23.385762 12.055649,20.425109"
     id="path9"
     style="fill:#ffffff" /><path
     d="M 0.05316676,172.87969 C -4.88128e-6,181.86693 -4.88128e-6,190.798 -4.88128e-6,199.78524 66.567357,199.83983 133.18754,199.89353 199.75472,199.94705 c 0.0546,-26.85379 0.0546,-53.75723 0.10899,-80.66562 -2.69108,24.32488 -18.02871,46.43899 -38.31502,61.1852 -10.70817,7.80227 -22.22433,13.66917 -38.47843,14.52999 -37.399976,1.88308 -62.150933,-26.69199 -40.897292,-60.53954 2.744081,-4.35813 6.350743,-8.39458 10.169032,-11.78609 8.07184,-7.1038 18.02996,-11.83696 29.59947,-15.76795 20.2879,-6.83353 44.71823,-1.93626 57.57835,15.76795 C 166.44313,91.245318 120.70315,84.787349 91.641937,93.504671 49.184116,106.25827 24.646552,128.10793 0.05316676,172.87969"
     id="path11"
     style="fill:#888888" /><path
     d="m 156.54049,24.35928 h -2.46957 c -0.009,-0.390926 -0.0136,-0.638236 -0.0136,-0.73716 0,-2.046314 0.33351,-3.506679 0.99719,-4.380036 0.5727,-0.772667 1.58508,-1.159001 3.04244,-1.159001 1.59161,0 2.70221,0.467946 3.32773,1.404014 0.51988,0.784149 0.77885,1.834334 0.77885,3.153379 0,0.936951 -0.19096,2.001267 -0.5727,3.193301 -0.38174,1.190798 -0.9956,2.655049 -1.84246,4.392402 l -2.38672,4.570994 h 4.61092 v 2.141528 h -8.18684 c 0.24537,-0.535249 1.1242,-2.367639 2.6335,-5.49929 1.26499,-2.626432 2.11679,-4.54962 2.55912,-5.763735 0.44092,-1.213939 0.65926,-2.25794 0.65926,-3.131298 0,-0.728151 -0.13955,-1.292548 -0.42148,-1.699549 -0.28211,-0.403292 -0.68205,-0.606086 -1.20016,-0.606086 -0.53631,0 -0.92901,0.229468 -1.17437,0.688405 -0.24537,0.459643 -0.36796,1.184968 -0.36796,2.176857 0,0.454521 0.009,0.871945 0.0268,1.255275"
     id="path13"
     style="fill:#f7f7f7" /><path
     d="m 168.60374,18.096862 c 1.0818,0 1.96841,0.399759 2.66087,1.200866 0.56387,0.664204 0.96381,1.641609 1.20016,2.932567 0.23636,1.292547 0.35454,3.138893 0.35454,5.539389 0,1.746892 -0.0698,3.169984 -0.21057,4.271043 -0.14238,1.100353 -0.37114,2.042074 -0.68911,2.825163 -0.28211,0.691408 -0.70925,1.244853 -1.28371,1.664043 -0.56334,0.41919 -1.23673,0.627637 -2.01841,0.627637 -1.08321,0 -1.96964,-0.401172 -2.65911,-1.201926 -0.55609,-0.654488 -0.95497,-1.6273 -1.19574,-2.918434 -0.24095,-1.292195 -0.36213,-3.098794 -0.36213,-5.416971 0,-1.819848 0.0696,-3.290283 0.2118,-4.41413 0.14114,-1.123494 0.3699,-2.066628 0.68946,-2.832052 0.62782,-1.48174 1.72746,-2.241865 3.30195,-2.277195 m -0.0272,2.237272 c -0.62728,0 -1.0652,0.532246 -1.31056,1.596209 -0.24537,1.064669 -0.3685,2.974432 -0.3685,5.730525 0,2.74779 0.12313,4.653314 0.3685,5.718336 0.24536,1.062903 0.68787,1.596209 1.32416,1.596209 0.62746,0 1.06379,-0.5273 1.31075,-1.58243 0.24395,-1.057427 0.36655,-2.929917 0.36655,-5.623299 0,-2.81898 -0.11942,-4.758597 -0.36037,-5.818673 -0.24113,-1.060076 -0.68505,-1.598152 -1.33053,-1.616877"
     id="path15"
     style="fill:#f7f7f7" /><path
     d="m 179.19266,18.096862 c 1.08163,0 1.96842,0.399759 2.66088,1.200866 0.56334,0.664204 0.96345,1.641609 1.20034,2.932567 0.236,1.292547 0.35436,3.138893 0.35436,5.539389 0,1.746892 -0.07,3.169984 -0.21074,4.271043 -0.14221,1.100353 -0.37132,2.042074 -0.68947,2.825163 -0.28176,0.691408 -0.70925,1.244853 -1.28318,1.664043 -0.56387,0.41919 -1.23638,0.627637 -2.01823,0.627637 -1.08375,0 -1.97,-0.401172 -2.65947,-1.201926 -0.55609,-0.654488 -0.95461,-1.6273 -1.19592,-2.918434 -0.24059,-1.292195 -0.3623,-3.098794 -0.3623,-5.416971 0,-1.819848 0.0701,-3.290283 0.21233,-4.41413 0.14097,-1.123494 0.3699,-2.066628 0.68946,-2.832052 0.62711,-1.48174 1.72729,-2.241865 3.30194,-2.277195 m -0.0274,2.237272 c -0.62728,0 -1.06537,0.532246 -1.31074,1.596209 -0.24572,1.064669 -0.36831,2.974432 -0.36831,5.730525 0,2.74779 0.12259,4.653314 0.36831,5.718336 0.24537,1.062903 0.68788,1.596209 1.32399,1.596209 0.62782,0 1.06379,-0.5273 1.31092,-1.58243 0.24396,-1.057427 0.36655,-2.929917 0.36655,-5.623299 0,-2.81898 -0.11941,-4.758597 -0.36037,-5.818673 -0.24077,-1.060076 -0.68487,-1.598152 -1.33035,-1.616877"
     id="path17"
     style="fill:#f7f7f7" /><path
     d="m 189.78142,18.096862 c 1.08198,0 1.96823,0.399759 2.6607,1.200866 0.56369,0.664204 0.96362,1.641609 1.20034,2.932567 0.23635,1.292547 0.35436,3.138893 0.35436,5.539389 0,1.746892 -0.0698,3.169984 -0.21057,4.271043 -0.14238,1.100353 -0.37114,2.042074 -0.68947,2.825163 -0.28193,0.691408 -0.70907,1.244853 -1.28353,1.664043 -0.56352,0.41919 -1.2362,0.627637 -2.01841,0.627637 -1.08339,0 -1.96947,-0.401172 -2.66052,-1.201926 -0.55486,-0.654488 -0.95321,-1.6273 -1.19416,-2.918434 -0.24112,-1.292195 -0.36231,-3.098794 -0.36231,-5.416971 0,-1.819848 0.07,-3.290283 0.21198,-4.41413 0.14097,-1.123494 0.36991,-2.066628 0.68947,-2.832052 0.62728,-1.48174 1.72746,-2.241865 3.30212,-2.277195 m -0.0272,2.237272 c -0.62746,0 -1.06696,0.532246 -1.31092,1.596209 -0.24536,1.064669 -0.36813,2.974432 -0.36813,5.730525 0,2.74779 0.12277,4.653314 0.36813,5.718336 0.24396,1.062903 0.68788,1.596209 1.32417,1.596209 0.62729,0 1.06379,-0.5273 1.30933,-1.58243 0.24554,-1.057427 0.36814,-2.929917 0.36814,-5.623299 0,-2.81898 -0.11959,-4.758597 -0.36054,-5.818673 -0.24113,-1.060076 -0.68487,-1.598152 -1.33018,-1.616877"
     id="path19"
     style="fill:#f7f7f7" /><path
     d="M 97.832988,28.356162 80.942425,7.157106 h -7.752108 v 0.898795 c 1.050184,0 1.861538,0.1803597 2.432117,0.543022 0.571286,0.3925163 1.218355,1.0349922 1.939617,1.936614 v 19.653015 c 0,1.41002 -0.09115,2.508607 -0.271335,3.28728 -0.178593,0.844917 -0.450104,1.413553 -0.809233,1.716154 -0.39393,0.329276 -0.737867,0.537016 -1.037819,0.628874 l -2.253347,0.315144 v 0.856045 h 10.635742 v -0.898265 c -0.810647,0 -1.516364,-0.106873 -2.118387,-0.31479 -0.511931,-0.153685 -0.915223,-0.437915 -1.216588,-0.860109 -0.299952,-0.38916 -0.526064,-0.94596 -0.67604,-1.668105 -0.150152,-0.750586 -0.225582,-1.290075 -0.225582,-1.62147 V 30.139797 12.786587 L 97.77858,35.43753 c 0.04699,-2.194346 0.07437,-4.820601 0.05441,-7.081368"
     id="path21"
     style="fill:#f7f7f7" /><path
     d="M 121.83495,10.396866 C 121.62297,9.5899294 121.20325,9.0225297 120.5742,8.6897211 119.91547,8.3613288 119.01668,8.1982809 117.87834,8.1982809 V 7.2980727 h 10.42376 v 0.8101167 l -1.6167,0.1800063 c -0.48031,0.1160591 -0.94401,0.3123172 -1.39253,0.5822383 -0.33051,0.2102135 -0.61509,0.6468922 -0.85463,1.301734 -0.24077,0.719495 -0.36054,1.649204 -0.36054,2.783297 v 13.794419 c 0,1.614934 -0.22276,3.126528 -0.67269,4.536548 -0.50945,1.376457 -1.18196,2.532454 -2.02158,3.457217 -1.85783,1.950569 -4.80647,2.923557 -8.84892,2.923557 -3.92481,0 -6.85826,-1.078625 -8.80406,-3.234991 -0.80747,-0.926529 -1.42274,-2.038894 -1.84229,-3.325436 -0.39127,-1.16536 -0.58365,-2.423991 -0.58365,-3.775187 V 12.238796 c 0,-0.984824 -0.0911,-1.751661 -0.26974,-2.2886773 -0.18036,-0.539489 -0.41972,-0.9157535 -0.71826,-1.1217273 C 99.987764,8.6187078 99.567867,8.4945229 99.057349,8.4676721 L 97.261702,8.1981043 V 7.297896 h 12.710318 v 0.853926 l -1.25474,0.1361971 c -0.39093,0 -0.64725,0.016958 -0.76525,0.043456 -0.0894,0.029677 -0.25473,0.090445 -0.49409,0.1803596 l -0.35913,0.1361971 c -0.32998,0.1181789 -0.61386,0.4191904 -0.85128,0.8954387 -0.21074,0.451694 -0.31691,1.1701295 -0.31691,2.1547765 v 16.130792 c 0,0.864348 0.13337,1.825324 0.40453,2.873565 0.26833,1.048064 0.65908,1.873019 1.16995,2.4678 1.49552,1.709265 3.57611,2.563191 6.24122,2.563191 1.49729,0 2.84584,-0.254729 4.04441,-0.765424 1.16659,-0.508399 2.15618,-1.272057 2.96242,-2.291857 0.929,-1.19645 1.39288,-3.263255 1.39288,-6.194938 V 13.898599 c 0,-1.58402 -0.10316,-2.75415 -0.31108,-3.501733"
     id="path23"
     style="fill:#f7f7f7" /><path
     d="m 146.42939,35.360864 c -0.3593,-0.18036 -0.71949,-0.417424 -1.07703,-0.719496 -0.30048,-0.238124 -0.57146,-0.463176 -0.80941,-0.673919 l -13.0267,-13.969127 9.07345,-8.940608 c 0.77885,-0.779026 1.51212,-1.4071937 2.20159,-1.8837953 0.56669,-0.3891599 1.07756,-0.6765694 1.52608,-0.856929 0.51034,-0.1485626 0.98959,-0.2232856 1.43652,-0.2232856 l 1.16959,-0.046282 V 7.1956157 h -11.85851 v 0.8980884 c 1.37611,0 2.27596,0.1210053 2.69568,0.3566563 0.23954,0.1524489 0.35736,0.5124616 0.35736,1.0805679 0,0.6023767 -0.13178,1.0349917 -0.40276,1.3017337 -0.12012,0.178946 -0.43491,0.540196 -0.94243,1.078625 -0.45028,0.509811 -1.06537,1.153877 -1.84122,1.931137 l -4.6307,4.268923 -3.39875,3.122288 v 2.319945 l 0.93166,-0.771431 2.78541,2.603114 2.60329,2.60647 2.11044,2.387248 c 0.23971,0.294476 0.64407,0.789272 1.21376,1.48015 0.20916,0.235651 0.55468,0.671093 1.03358,1.302794 l 0.26939,0.401525 c 0.41972,0.691408 0.62905,1.212349 0.62905,1.572361 0,0.328746 -0.091,0.540196 -0.26956,0.632054 -0.38952,0.176473 -1.34855,0.266742 -2.87604,0.266742 v 0.901621 h 13.79212 v -0.901621 c -1.01839,-1.77e-4 -1.91701,-0.224876 -2.69586,-0.673743"
     id="path25"
     style="fill:#f7f7f7" /></g>
</svg>